<svg class="svg-icon" style="width: 1em;height: 1em;vertical-align: middle;fill: currentColor;overflow: hidden;" viewBox="0 0 1024 1024" version="1.1" xmlns="http://www.w3.org/2000/svg"><path d="M361.571681 557.309735H74.761062a45.309735 45.309735 0 0 1 0-90.61947h286.810619V338.916814a22.654867 22.654867 0 0 1 38.513275-16.311504l171.723894 167.646017a22.654867 22.654867 0 0 1 0 32.169912l-171.723894 176.254867a22.654867 22.654867 0 0 1-38.966372-15.858407zM845.026549 0H301.309735a149.522124 149.522124 0 0 0-149.522124 149.522124v45.309734a58.902655 58.902655 0 0 0 117.805309 0v-45.309734a31.716814 31.716814 0 0 1 31.716815-31.716814h543.716814a31.716814 31.716814 0 0 1 31.716814 31.716814v724.955752a31.716814 31.716814 0 0 1-31.716814 31.716814H301.309735a31.716814 31.716814 0 0 1-31.716815-31.716814v-45.309734a58.902655 58.902655 0 0 0-117.805309 0v45.309734A149.522124 149.522124 0 0 0 301.309735 1024h543.716814a149.522124 149.522124 0 0 0 149.522124-149.522124v-724.955752A149.522124 149.522124 0 0 0 845.026549 0z"  /></svg>